<svg width="300" height="300" viewBox="0 0 300 300" fill="none" xmlns="http://www.w3.org/2000/svg">
<path d="M80.7098 36.3774C79.483 36.4386 78.2715 36.6742 77.1525 37.085L8.11028 62.4211C5.12607 63.5161 2.45672 65.9871 1.12072 68.8715C-0.215289 71.7538 -0.369059 75.3937 0.725306 78.3773L45.139 199.446C46.2327 202.43 48.703 205.121 51.5867 206.456C54.4704 207.793 58.1103 207.947 61.0925 206.852L130.136 181.515C133.12 180.42 135.79 177.95 137.126 175.066L137.146 175.024C138.465 172.147 138.61 168.529 137.521 165.56L93.1073 44.4899C92.0189 41.521 89.5673 38.8423 86.7009 37.5003L86.6596 37.4804C85.2178 36.8114 83.5822 36.4446 81.9373 36.3767C81.5259 36.36 81.1186 36.3574 80.7098 36.3774ZM106.714 45.4465L149.212 161.273C151.482 167.464 151.193 174.327 148.421 180.308C145.65 186.29 140.61 190.936 134.422 193.206L116.156 199.904L156.097 201.755C159.272 201.903 162.693 200.65 165.043 198.51C167.392 196.369 168.951 193.072 169.098 189.897L175.09 61.0891C175.237 57.9152 174.006 54.4737 171.866 52.1238C169.725 49.774 166.428 48.2163 163.253 48.0679L106.713 45.4451L106.714 45.4465ZM187.26 67.5801L181.518 190.48C181.212 197.066 178.299 203.286 173.426 207.725C168.553 212.165 162.1 214.481 155.515 214.174L138.167 213.362L184.348 228.736C187.363 229.739 191.012 229.473 193.853 228.05C196.696 226.626 199.071 223.868 200.074 220.852L240.783 98.4946C241.787 95.4777 241.52 91.8292 240.098 88.9874C238.673 86.145 235.915 83.7486 232.899 82.7468L187.261 67.5814L187.26 67.5801ZM251.413 105.9L211.89 224.783C209.808 231.039 205.323 236.226 199.428 239.178L199.366 239.198C193.485 242.125 186.672 242.604 180.436 240.53L166.872 236.016L195.704 260.666C198.12 262.731 201.605 263.848 204.774 263.6C207.942 263.351 211.176 261.709 213.241 259.293L297.033 161.233C299.098 158.816 300.215 155.352 299.966 152.183C299.718 149.014 298.055 145.761 295.639 143.696L251.414 105.899L251.413 105.9Z" fill="black"/>
</svg>
