<svg width="76" height="57" viewBox="0 0 76 57" fill="none" xmlns="http://www.w3.org/2000/svg">
<path d="M20.3181 0.00351809C20.0114 0.0188285 19.7085 0.0777411 19.4287 0.180421L2.16819 6.51446C1.42214 6.78822 0.754805 7.40596 0.420804 8.12705C0.0868028 8.84764 0.0483602 9.75761 0.321952 10.5035L11.4254 40.7708C11.6988 41.5167 12.3164 42.1893 13.0373 42.5232C13.7582 42.8573 14.6682 42.8959 15.4137 42.6222L32.6746 36.2878C33.4207 36.0142 34.088 35.3966 34.422 34.6757L34.427 34.6652C34.7568 33.946 34.7931 33.0415 34.5209 32.2991L23.4175 2.03166C23.1454 1.28943 22.5324 0.619765 21.8158 0.284266L21.8055 0.279274C21.4451 0.112024 21.0362 0.0203264 20.625 0.00335176C20.5221 -0.000808693 20.4203 -0.00147446 20.3181 0.00351809ZM26.819 2.2708L37.4437 31.2275C38.0112 32.7752 37.9388 34.491 37.246 35.9863C36.5532 37.4817 35.2932 38.6431 33.7462 39.2106L29.1797 40.8853L39.1648 41.3479C39.9586 41.385 40.814 41.0717 41.4014 40.5368C41.9885 40.0014 42.3783 39.1772 42.4152 38.3834L43.913 6.18146C43.9499 5.38798 43.6421 4.52759 43.107 3.94014C42.5718 3.35268 41.7477 2.96326 40.9539 2.92615L26.8189 2.27047L26.819 2.2708ZM46.9556 7.8042L45.5201 38.5293C45.4435 40.1757 44.7153 41.7307 43.4971 42.8405C42.2789 43.9505 40.6657 44.5293 39.0193 44.4528L34.6825 44.2498L46.2275 48.0932C46.9814 48.344 47.8937 48.2774 48.604 47.9218C49.3146 47.5656 49.9084 46.8762 50.1592 46.1221L60.3365 15.5328C60.5873 14.7786 60.5207 13.8665 60.1651 13.156C59.8089 12.4454 59.1195 11.8463 58.3654 11.5959L46.9558 7.80453L46.9556 7.8042ZM62.994 17.3841L53.1131 47.105C52.5927 48.6688 51.4714 49.9657 49.9977 50.7038L49.9821 50.7088C48.512 51.4404 46.8085 51.5602 45.2497 51.0416L41.8587 49.9133L49.0666 56.0758C49.6707 56.592 50.5419 56.8712 51.3341 56.8092C52.1262 56.7469 52.9347 56.3365 53.4509 55.7324L74.3988 31.2174C74.915 30.6133 75.1943 29.7471 75.132 28.9549C75.0701 28.1628 74.6544 27.3493 74.0503 26.8331L62.9942 17.3839L62.994 17.3841Z" fill="black"/>
</svg>
