<svg width="67" height="76" viewBox="0 0 67 76" fill="none" xmlns="http://www.w3.org/2000/svg">
<g clip-path="url(#clip0_1009_3323)">
<path d="M37.9675 42.162H35.0829V27.7389H37.9675C38.35 27.7389 38.7169 27.5869 38.9874 27.3164C39.2579 27.046 39.4098 26.6791 39.4098 26.2966C39.4098 25.9141 39.2579 25.5472 38.9874 25.2767C38.7169 25.0062 38.35 24.8543 37.9675 24.8543H35.0829V21.9697C35.0829 21.5871 34.9309 21.2203 34.6604 20.9498C34.39 20.6793 34.0231 20.5273 33.6406 20.5273C33.2581 20.5273 32.8912 20.6793 32.6207 20.9498C32.3502 21.2203 32.1983 21.5871 32.1983 21.9697V24.9697C29.8119 25.3336 27.635 26.5404 26.062 28.3715C24.489 30.2025 23.6241 32.5365 23.6241 34.9504C23.6241 37.3643 24.489 39.6984 26.062 41.5294C27.635 43.3604 29.8119 44.5673 32.1983 44.9312V47.9312C32.1983 48.3137 32.3502 48.6806 32.6207 48.9511C32.8912 49.2215 33.2581 49.3735 33.6406 49.3735C34.0231 49.3735 34.39 49.2215 34.6604 48.9511C34.9309 48.6806 35.0829 48.3137 35.0829 47.9312V45.0466H37.9675C38.35 45.0466 38.7169 44.8946 38.9874 44.6241C39.2579 44.3536 39.4098 43.9868 39.4098 43.6043C39.4098 43.2217 39.2579 42.8549 38.9874 42.5844C38.7169 42.3139 38.35 42.162 37.9675 42.162ZM26.429 34.9504C26.4287 33.2879 27.0028 31.6764 28.0541 30.3885C29.1054 29.1007 30.5694 28.2156 32.1983 27.8831V42.0177C30.5694 41.6852 29.1054 40.8002 28.0541 39.5123C27.0028 38.2244 26.4287 36.6129 26.429 34.9504Z" fill="black"/>
<path d="M33.6406 0.335938C27.0796 0.335937 20.6659 2.2815 15.2106 5.92661C9.75536 9.57171 5.50349 14.7526 2.99269 20.8142C0.481903 26.8758 -0.175035 33.5458 1.10496 39.9808C2.38495 46.4157 5.54438 52.3266 10.1837 56.9659C14.8231 61.6053 20.7339 64.7647 27.1689 66.0447C33.6038 67.3247 40.2738 66.6677 46.3354 64.1569C52.397 61.6462 57.5779 57.3943 61.223 51.939C64.8681 46.4837 66.8137 40.07 66.8137 33.509C66.8137 24.711 63.3187 16.2733 57.0975 10.0521C50.8764 3.83095 42.4387 0.335938 33.6406 0.335938ZM33.6406 59.4706C28.5059 59.4706 23.4865 57.9479 19.2172 55.0953C14.9478 52.2426 11.6203 48.1879 9.65529 43.4441C7.69032 38.7002 7.1762 33.4802 8.17793 28.4442C9.17966 23.4081 11.6523 18.7822 15.283 15.1514C18.9138 11.5206 23.5397 9.04805 28.5758 8.04632C33.6118 7.04459 38.8318 7.55871 43.5757 9.52368C48.3195 11.4886 52.3742 14.8162 55.2269 19.0856C58.0795 23.3549 59.6022 28.3743 59.6022 33.509C59.6022 40.3944 56.8669 46.9979 51.9982 51.8666C47.1295 56.7353 40.526 59.4706 33.6406 59.4706Z" fill="black"/>
<path d="M66.0204 49.375C65.1202 53.5057 63.4306 57.4236 61.0444 60.9135V56.9327C63.0186 54.636 64.6908 52.0961 66.0204 49.375Z" fill="black"/>
<path d="M58.1599 59.9453V64.5174C56.4318 66.4108 54.4966 68.1041 52.3906 69.5655V64.3155C54.4576 63.0592 56.3907 61.5948 58.1599 59.9453Z" fill="black"/>
<path d="M49.506 65.8906V71.2993C47.6734 72.3224 45.7401 73.1537 43.7368 73.78V68.1262C45.7201 67.5468 47.6502 66.7989 49.506 65.8906Z" fill="black"/>
<path d="M40.8521 68.8594V74.6286C38.9524 75.0261 37.0224 75.2625 35.0829 75.3353V69.5661C37.0212 69.4782 38.9499 69.2419 40.8521 68.8594Z" fill="black"/>
<path d="M32.1983 69.5664V75.3356C30.2575 75.2486 28.3276 74.9977 26.4291 74.5856V68.8164C28.3302 69.2135 30.2589 69.4642 32.1983 69.5664Z" fill="black"/>
<path d="M23.5445 68.1262V73.7656C21.5412 73.1393 19.6079 72.308 17.7753 71.2849V65.8906C19.6328 66.7951 21.5625 67.5429 23.5445 68.1262Z" fill="black"/>
<path d="M14.8906 64.3155V69.5655C12.7861 68.1131 10.851 66.4295 9.12134 64.5463V59.9453C10.8905 61.5948 12.8236 63.0592 14.8906 64.3155Z" fill="black"/>
<path d="M6.23683 56.9327V60.9135C3.85065 57.4236 2.16105 53.5057 1.26086 49.375C2.59044 52.0961 4.26267 54.636 6.23683 56.9327Z" fill="black"/>
</g>
<defs>
<clipPath id="clip0_1009_3323">
<rect width="66.3462" height="75" fill="white" transform="translate(0.467529 0.335938)"/>
</clipPath>
</defs>
</svg>
