<svg width="300" height="300" viewBox="0 0 300 300" fill="none" xmlns="http://www.w3.org/2000/svg">
<g clip-path="url(#clip0_1009_4421)">
<path d="M167.308 167.308H155.769V109.616H167.308C168.838 109.616 170.305 109.008 171.387 107.926C172.469 106.844 173.077 105.377 173.077 103.846C173.077 102.316 172.469 100.849 171.387 99.767C170.305 98.685 168.838 98.0772 167.308 98.0772H155.769V86.5388C155.769 85.0087 155.161 83.5412 154.079 82.4593C152.997 81.3774 151.53 80.7695 150 80.7695C148.47 80.7695 147.002 81.3774 145.92 82.4593C144.839 83.5412 144.231 85.0087 144.231 86.5388V98.5388C134.685 99.9944 125.978 104.822 119.686 112.146C113.394 119.47 109.934 128.806 109.934 138.462C109.934 148.117 113.394 157.454 119.686 164.778C125.978 172.102 134.685 176.929 144.231 178.385V190.385C144.231 191.915 144.839 193.382 145.92 194.464C147.002 195.546 148.47 196.154 150 196.154C151.53 196.154 152.997 195.546 154.079 194.464C155.161 193.382 155.769 191.915 155.769 190.385V178.846H167.308C168.838 178.846 170.305 178.239 171.387 177.157C172.469 176.075 173.077 174.607 173.077 173.077C173.077 171.547 172.469 170.08 171.387 168.998C170.305 167.916 168.838 167.308 167.308 167.308ZM121.154 138.462C121.152 131.812 123.449 125.366 127.654 120.214C131.859 115.063 137.715 111.523 144.231 110.193V166.731C137.715 165.401 131.859 161.861 127.654 156.709C123.449 151.558 121.152 145.112 121.154 138.462Z" fill="black"/>
<path d="M150 0C123.756 0 98.1012 7.78227 76.2801 22.3627C54.4589 36.9431 37.4514 57.6668 27.4083 81.9132C17.3651 106.16 14.7374 132.84 19.8573 158.579C24.9773 184.319 37.615 207.963 56.1724 226.52C74.7297 245.077 98.3732 257.715 124.113 262.835C149.853 267.955 176.533 265.327 200.779 255.284C225.025 245.241 245.749 228.233 260.33 206.412C274.91 184.591 282.692 158.936 282.692 132.692C282.692 97.5001 268.712 63.7493 243.828 38.8647C218.943 13.98 185.192 0 150 0ZM150 236.538C129.461 236.538 109.384 230.448 92.3061 219.037C75.2287 207.626 61.9185 191.408 54.0587 172.433C46.1988 153.457 44.1423 132.577 48.1492 112.433C52.1561 92.2888 62.0465 73.7851 76.5697 59.262C91.0928 44.7388 109.596 34.8485 129.741 30.8415C149.885 26.8346 170.765 28.8911 189.74 36.751C208.716 44.6108 224.934 57.9211 236.345 74.9985C247.756 92.0759 253.846 112.153 253.846 132.692C253.846 160.234 242.905 186.648 223.43 206.123C203.955 225.598 177.542 236.538 150 236.538Z" fill="black"/>
<path d="M279.519 196.152C275.918 212.675 269.16 228.347 259.615 242.306V226.383C267.512 217.196 274.201 207.037 279.519 196.152Z" fill="black"/>
<path d="M248.077 238.441V256.73C241.165 264.303 233.424 271.076 225 276.922V255.922C233.268 250.897 241 245.039 248.077 238.441Z" fill="black"/>
<path d="M213.462 262.211V283.846C206.131 287.938 198.398 291.263 190.385 293.769V271.153C198.318 268.836 206.038 265.844 213.462 262.211Z" fill="black"/>
<path d="M178.846 274.098V297.175C171.247 298.765 163.527 299.71 155.769 300.002V276.925C163.522 276.573 171.237 275.628 178.846 274.098Z" fill="black"/>
<path d="M144.231 276.922V299.999C136.468 299.651 128.748 298.647 121.154 296.999V273.922C128.758 275.51 136.473 276.513 144.231 276.922Z" fill="black"/>
<path d="M109.615 271.153V293.711C101.602 291.206 93.8691 287.88 86.5385 283.788V262.211C93.9684 265.829 101.688 268.82 109.615 271.153Z" fill="black"/>
<path d="M75 255.922V276.922C66.5822 271.113 58.8416 264.378 51.9231 256.845V238.441C58.9997 245.039 66.7322 250.897 75 255.922Z" fill="black"/>
<path d="M40.3846 226.383V242.306C30.8399 228.347 24.0815 212.675 20.4807 196.152C25.799 207.037 32.4879 217.196 40.3846 226.383Z" fill="black"/>
</g>
<defs>
<clipPath id="clip0_1009_4421">
<rect width="265.385" height="300" fill="white" transform="translate(17.3076)"/>
</clipPath>
</defs>
</svg>
